<svg width="64" height="64" viewBox="0 0 64 64" xmlns="http://www.w3.org/2000/svg">
  <rect width="64" height="64" rx="14" fill="#141210"/>
  <g fill="#6F9FC9">
    <!-- quill: a bold diagonal feather shape -->
    <path d="M44 14
             C 50 18, 51 28, 46 36
             C 41 44, 32 49, 24 51
             C 23 51.4, 22.2 50.7, 22.5 49.8
             C 24 45, 28 38, 33 32
             C 38 26, 41 19, 44 14 Z"/>
    <!-- central spine of the feather -->
    <path d="M44 14 C 38 22, 30 34, 23 49.5" stroke="#141210" stroke-width="1.6" fill="none" stroke-linecap="round"/>
    <!-- barb lines -->
    <path d="M40 20 L 33 25" stroke="#141210" stroke-width="1.3" stroke-linecap="round"/>
    <path d="M37 26 L 29 30.5" stroke="#141210" stroke-width="1.3" stroke-linecap="round"/>
    <path d="M34 32 L 26 36" stroke="#141210" stroke-width="1.3" stroke-linecap="round"/>
    <path d="M31 38 L 24 41.5" stroke="#141210" stroke-width="1.3" stroke-linecap="round"/>
    <!-- nib tip -->
    <path d="M24 51 L 18 50 L 22.5 49.8 Z"/>
  </g>
  <!-- ink dot -->
  <circle cx="17" cy="51" r="2" fill="#6F9FC9"/>
</svg>
